<?xml version="1.0" standalone="no"?>
<!DOCTYPE svg PUBLIC "-//W3C//DTD SVG 20010904//EN"
 "http://www.w3.org/TR/2001/REC-SVG-20010904/DTD/svg10.dtd">
<svg version="1.0" xmlns="http://www.w3.org/2000/svg"
 width="32.000000pt" height="32.000000pt" viewBox="0 0 32.000000 32.000000"
 preserveAspectRatio="xMidYMid meet">

<g transform="translate(0.000000,32.000000) scale(0.100000,-0.100000)"
fill="#000000" stroke="none">
<path d="M118 302 c-29 -30 -31 -64 -5 -92 l23 -24 -30 -16 c-16 -8 -32 -22
-34 -30 -4 -12 -1 -11 15 2 25 23 45 23 93 -2 38 -19 40 -23 38 -63 l-1 -42
-4 38 -4 37 -50 0 c-40 0 -49 -3 -48 -17 0 -11 3 -13 6 -5 3 7 22 12 46 12 31
0 38 -3 27 -10 -13 -9 -13 -11 0 -20 12 -8 9 -10 -12 -10 -18 0 -29 -7 -33
-20 -9 -28 -65 -28 -65 0 0 11 5 20 10 20 6 0 10 7 10 16 0 14 -3 14 -15 4 -8
-7 -15 -23 -15 -37 0 -14 -4 -22 -11 -18 -6 4 -8 20 -4 38 5 26 4 29 -5 14 -6
-10 -10 -28 -8 -40 3 -19 10 -22 52 -25 32 -2 52 1 57 9 6 11 13 10 33 -1 34
-18 83 -17 102 1 12 13 11 23 -7 78 -17 50 -27 65 -50 75 -16 7 -26 15 -22 19
3 4 -8 4 -25 1 -34 -7 -62 8 -62 32 0 10 14 14 50 14 43 0 49 -2 43 -17 -5
-17 -5 -17 12 -2 15 15 16 22 6 52 -7 19 -19 38 -27 41 -28 11 -69 5 -86 -12z
m76 2 c31 -12 15 -24 -30 -24 -40 0 -45 2 -34 15 13 16 38 19 64 9z m-1 -51
c-13 -2 -35 -2 -50 0 -16 2 -5 4 22 4 28 0 40 -2 28 -4z m-13 -77 c0 -11 -19
-15 -25 -6 -3 5 1 10 9 10 9 0 16 -2 16 -4z m76 -53 c9 -20 17 -51 19 -67 1
-17 0 -23 -2 -13 -2 10 -13 23 -24 30 -10 6 -19 19 -19 29 0 9 -12 26 -27 37
l-28 20 33 1 c29 0 35 -5 48 -37z m-6 -83 c0 -16 -6 -20 -32 -19 -31 2 -31 2
-5 6 15 2 27 11 27 19 0 8 2 14 5 14 3 0 5 -9 5 -20z"/>
<path d="M109 129 l-24 -20 28 17 c15 9 27 18 27 20 0 8 -8 4 -31 -17z"/>
<path d="M148 123 c6 -2 18 -2 25 0 6 3 1 5 -13 5 -14 0 -19 -2 -12 -5z"/>
</g>
</svg>
