<svg width="149" height="24" viewBox="0 0 149 24" fill="none" xmlns="http://www.w3.org/2000/svg">
<path d="M6.18 23L0.33 0.649998H5.37L9.78 19.37H8.43L13.08 0.649998H17.88L22.53 19.37H21.18L25.59 0.649998H30.63L24.78 23H19.38L14.7 5H16.26L11.58 23H6.18ZM28.8956 23L36.4556 0.649998H42.6356L50.1956 23H45.1256L43.6256 18.44H35.4356L33.9356 23H28.8956ZM36.7256 14.39H42.3356L38.9156 3.83H40.1756L36.7256 14.39ZM51.3183 23V0.649998H59.8683C61.4083 0.649998 62.7683 0.919998 63.9483 1.46C65.1483 2 66.0883 2.8 66.7683 3.86C67.4483 4.92 67.7883 6.23 67.7883 7.79C67.7883 9.31 67.4383 10.61 66.7383 11.69C66.0383 12.75 65.0983 13.55 63.9183 14.09L69.0183 23H63.7983L58.2783 13.13L61.2783 14.9H55.9683V23H51.3183ZM55.9683 10.85H59.8983C60.5583 10.85 61.1283 10.72 61.6083 10.46C62.0883 10.2 62.4583 9.84 62.7183 9.38C62.9983 8.92 63.1383 8.39 63.1383 7.79C63.1383 7.17 62.9983 6.63 62.7183 6.17C62.4583 5.71 62.0883 5.35 61.6083 5.09C61.1283 4.83 60.5583 4.7 59.8983 4.7H55.9683V10.85ZM70.128 23V0.649998H85.158V4.7H74.778V9.77H84.558V13.82H74.778V18.95H85.158V23H70.128ZM86.5941 23V0.649998H96.0441C97.5841 0.649998 98.9041 0.909998 100.004 1.43C101.104 1.95 101.944 2.7 102.524 3.68C103.104 4.64 103.394 5.81 103.394 7.19C103.394 8.17 103.124 9.11 102.584 10.01C102.044 10.89 101.154 11.63 99.9141 12.23V9.95C101.094 10.41 102.004 10.96 102.644 11.6C103.284 12.24 103.724 12.94 103.964 13.7C104.204 14.44 104.324 15.22 104.324 16.04C104.324 18.24 103.594 19.95 102.134 21.17C100.674 22.39 98.6441 23 96.0441 23H86.5941ZM91.2441 18.95H96.5841C97.5241 18.95 98.2741 18.68 98.8341 18.14C99.3941 17.6 99.6741 16.9 99.6741 16.04C99.6741 15.16 99.3941 14.45 98.8341 13.91C98.2741 13.37 97.5241 13.1 96.5841 13.1H91.2441V18.95ZM91.2441 9.05H96.3741C97.0941 9.05 97.6641 8.85 98.0841 8.45C98.5241 8.03 98.7441 7.48 98.7441 6.8C98.7441 6.12 98.5241 5.58 98.0841 5.18C97.6641 4.76 97.0941 4.55 96.3741 4.55H91.2441V9.05ZM117.297 23.36C115.617 23.36 114.057 23.07 112.617 22.49C111.177 21.91 109.917 21.1 108.837 20.06C107.777 19 106.947 17.77 106.347 16.37C105.747 14.97 105.447 13.45 105.447 11.81C105.447 10.17 105.737 8.65 106.317 7.25C106.917 5.85 107.747 4.63 108.807 3.59C109.887 2.55 111.147 1.74 112.587 1.16C114.027 0.579999 115.597 0.289999 117.297 0.289999C118.997 0.289999 120.567 0.579999 122.007 1.16C123.447 1.74 124.697 2.55 125.757 3.59C126.837 4.63 127.667 5.85 128.247 7.25C128.847 8.65 129.147 10.17 129.147 11.81C129.147 13.45 128.847 14.97 128.247 16.37C127.647 17.77 126.807 19 125.727 20.06C124.667 21.1 123.417 21.91 121.977 22.49C120.537 23.07 118.977 23.36 117.297 23.36ZM117.297 19.16C118.317 19.16 119.257 18.98 120.117 18.62C120.997 18.26 121.767 17.76 122.427 17.12C123.087 16.46 123.597 15.68 123.957 14.78C124.317 13.88 124.497 12.89 124.497 11.81C124.497 10.73 124.317 9.75 123.957 8.87C123.597 7.97 123.087 7.19 122.427 6.53C121.767 5.87 120.997 5.37 120.117 5.03C119.257 4.67 118.317 4.49 117.297 4.49C116.277 4.49 115.327 4.67 114.447 5.03C113.587 5.37 112.827 5.87 112.167 6.53C111.507 7.19 110.997 7.97 110.637 8.87C110.277 9.75 110.097 10.73 110.097 11.81C110.097 12.89 110.277 13.88 110.637 14.78C110.997 15.68 111.507 16.46 112.167 17.12C112.827 17.76 113.587 18.26 114.447 18.62C115.327 18.98 116.277 19.16 117.297 19.16ZM128.687 23L136.007 11.81L128.687 0.649998H134.027L139.907 9.59H137.297L143.147 0.649998H148.487L141.197 11.81L148.487 23H143.147L137.297 14.03L139.907 14.06L134.027 23H128.687Z" fill="#1D252D"/>
</svg>
